<?xml version="1.0" standalone="no"?>
<!DOCTYPE svg PUBLIC "-//W3C//DTD SVG 20010904//EN"
 "http://www.w3.org/TR/2001/REC-SVG-20010904/DTD/svg10.dtd">
<svg version="1.0" xmlns="http://www.w3.org/2000/svg"
 width="500.000000pt" height="500.000000pt" viewBox="0 0 500.000000 500.000000"
 preserveAspectRatio="xMidYMid meet">

<g transform="translate(0.000000,500.000000) scale(0.100000,-0.100000)"
fill="#000000" stroke="none">
<path d="M2294 4135 c-237 -36 -454 -122 -653 -258 -106 -72 -294 -262 -368
-372 -109 -163 -187 -345 -229 -540 -26 -115 -26 -467 -1 -580 50 -226 162
-459 301 -630 72 -87 99 -115 181 -184 290 -245 613 -361 1004 -361 149 0 270
17 411 57 70 20 237 90 272 115 14 10 29 18 33 18 3 0 34 19 68 42 460 309
724 855 662 1373 -23 196 -45 286 -105 427 -82 192 -192 350 -347 498 -207
199 -435 319 -712 377 -149 30 -384 39 -517 18z m511 -133 c237 -55 421 -149
601 -308 74 -66 188 -196 241 -274 226 -337 282 -780 148 -1175 -139 -409
-523 -766 -930 -864 -154 -37 -188 -41 -345 -41 -153 0 -182 3 -335 36 -449
98 -843 451 -985 883 -52 158 -63 232 -64 416 0 189 15 287 67 440 115 342
380 636 710 790 116 53 175 73 307 102 93 20 127 22 300 19 152 -3 215 -8 285
-24z"/>
<path d="M3080 3400 c-38 -12 -197 -61 -475 -145 -296 -90 -298 -90 -354 -128
-51 -35 -77 -87 -85 -167 -2 -30 -5 -168 -5 -306 l-1 -251 -75 -5 c-91 -6
-157 -42 -192 -103 -39 -69 -26 -174 29 -232 49 -52 181 -77 258 -50 74 25
109 57 141 124 18 39 20 66 21 337 1 161 3 308 6 325 4 26 10 32 46 42 22 6
73 21 111 34 66 21 163 51 354 109 46 14 88 26 93 26 4 0 8 -85 8 -190 l0
-190 -62 -1 c-131 -1 -224 -70 -236 -174 -14 -132 102 -235 253 -223 113 10
191 74 214 178 6 27 11 231 11 516 0 421 -2 473 -16 478 -9 3 -16 6 -17 5 -1
0 -13 -4 -27 -9z"/>
<path d="M3966 1119 c-30 -43 20 -93 63 -63 23 17 28 53 9 72 -19 19 -55 14
-72 -9z"/>
<path d="M620 1080 l0 -39 58 -3 57 -3 3 -172 2 -173 40 0 40 0 0 175 0 175
60 0 60 0 0 40 0 40 -160 0 -160 0 0 -40z"/>
<path d="M2760 900 l0 -210 40 0 39 0 3 142 3 142 55 -107 c50 -96 58 -107 82
-107 25 0 33 10 82 108 l55 107 0 -142 1 -143 45 0 45 0 0 210 0 210 -55 0
-55 0 -56 -115 c-30 -63 -59 -115 -63 -115 -4 0 -32 52 -62 115 l-54 115 -52
0 -53 0 0 -210z"/>
<path d="M934 995 c-3 -8 -4 -63 -2 -122 4 -133 16 -162 76 -183 38 -13 47
-13 90 2 27 10 48 13 50 8 2 -6 21 -10 43 -10 l39 0 0 161 0 160 -42 -3 -43
-3 -3 -105 c-3 -119 -15 -143 -66 -138 -44 4 -56 36 -55 138 0 47 0 91 0 98
-1 18 -80 16 -87 -3z"/>
<path d="M1307 1003 c-4 -3 -7 -75 -7 -160 l0 -153 45 0 45 0 0 103 c0 116 10
137 66 137 48 0 54 -14 54 -132 l0 -108 45 0 45 0 0 98 c-1 121 -12 171 -45
200 -31 26 -91 30 -135 7 -27 -14 -30 -14 -30 0 0 11 -11 15 -38 15 -21 0 -42
-3 -45 -7z"/>
<path d="M1734 996 c-118 -52 -109 -250 13 -301 42 -18 100 -19 140 -4 29 11
73 47 73 60 0 12 -63 40 -69 31 -10 -15 -49 -32 -74 -32 -28 0 -77 41 -77 65
0 13 18 15 120 15 83 0 120 4 120 11 0 29 -25 96 -44 118 -43 48 -136 66 -202
37z m130 -69 c42 -34 27 -47 -55 -47 -76 0 -83 8 -43 45 34 31 61 31 98 2z"/>
<path d="M2014 1001 c-2 -2 -4 -17 -4 -32 0 -28 0 -28 76 -31 l76 -3 -81 -90
c-65 -73 -81 -96 -81 -122 l0 -33 140 0 140 0 0 35 0 34 -80 3 -81 3 81 90
c58 66 80 97 80 118 0 15 -3 27 -7 27 -61 4 -256 4 -259 1z"/>
<path d="M2313 993 c-3 -6 -3 -20 -1 -30 3 -15 16 -19 81 -23 l78 -5 -80 -90
c-65 -73 -80 -96 -81 -122 l0 -33 135 0 135 0 0 35 0 35 -75 0 c-41 0 -75 3
-75 6 0 4 34 44 75 89 62 69 75 89 75 116 l0 34 -131 0 c-93 0 -133 -4 -136
-12z"/>
<path d="M3287 1003 c-4 -3 -7 -60 -7 -125 0 -136 11 -169 61 -187 43 -15 73
-14 114 3 19 8 35 11 35 5 0 -5 20 -9 45 -9 l45 0 0 159 0 158 -42 -1 -43 -1
-3 -105 c-2 -93 -5 -107 -23 -122 -25 -21 -58 -23 -84 -4 -16 11 -18 26 -17
97 3 122 -2 139 -42 139 -18 0 -36 -3 -39 -7z"/>
<path d="M3694 1000 c-43 -17 -66 -77 -48 -125 8 -19 50 -42 115 -61 54 -16
66 -28 49 -49 -18 -21 -63 -18 -93 5 -23 19 -27 19 -61 5 -32 -14 -35 -18 -25
-36 14 -27 84 -59 132 -59 44 0 105 23 123 48 7 9 14 33 14 53 0 47 -31 75
-106 98 -51 15 -59 20 -59 42 0 32 44 38 83 11 25 -18 49 -17 80 4 11 7 -25
48 -53 60 -38 15 -118 18 -151 4z"/>
<path d="M3960 851 l0 -161 45 0 46 0 -3 158 -3 157 -42 3 -43 3 0 -160z"/>
<path d="M4170 991 c-50 -26 -72 -69 -73 -140 0 -72 23 -117 79 -148 67 -38
164 -25 208 28 33 39 33 45 -5 58 -26 9 -35 8 -56 -9 -81 -64 -174 38 -117
128 11 17 24 22 58 22 27 0 48 -6 56 -15 13 -16 64 -13 83 4 12 12 -33 62 -69
77 -47 20 -123 17 -164 -5z"/>
</g>
</svg>
